<svg xmlns="http://www.w3.org/2000/svg" viewBox="0 0 40 20"><path d="M0 0h40v20H0z" fill="#c8313e"/><path d="M0 13.33h40V20H0z" fill="#4aa657"/><path d="M0 0h4.44v20H0z" fill="#fff"/><g fill="#c8313e" fill-rule="evenodd"><path d="M.77 0h.58v.33h.2v.33h.19V1h.19v.33h.2v.33h-.2V2h-.19v.3h-.19v.32h-.2V3h-.19v.33H1V3H.77v-.38H.58V2.3H.39V2h-.2v-.36H0v-.33h.19V1h.2V.66h.19V.33h.19zM1 .66h.19V1h.19v.33h.2v.33h-.2V2h-.22v.3H1V2H.77v-.36H.58v-.33h.19V1H1zm0 .65h.19v.33H1zm-1-1h.19v.35H0zm0 2h.19v.32H0zM2.13 0h.11v.66h-.11zm0 2.3h.11V3h-.11zM.39 3h.19v.33h.19v.33H1v.32H.77v.33H.58v.33H.39v-.38h-.2v-.33H0v-.32h.19v-.33h.2zm0 .66h.19v.32H.39zM1.55 3h.19v.33h.19v.33h.2v.32h-.2v.33h-.19v.33h-.19v-.38h-.2v-.33h-.19v-.32h.19v-.33h.2zm0 .66h.19v.32h-.19zM0 4.92h.19v.33H0zm2.13-.33h.11v.66h-.11zM0 5.9h.19v-.33h.2v-.32h.19v-.33h.19v-.33H1v-.33h.19v.33h.19v.33h.2v.33h.19v.32h.19v.33h.2v.33h.11v1.31h-.14v.33h-.2v.33h-.19v.32h-.19v.33h-.2v.33h-.19V10H.77v-.16H.58v-.33H.39v-.33h-.2v-.33H0v-1h.19v.35h.2v.32h.19v.33h.19v-.33H1V8.2h.19v-.33h.19v-.33h.2v-.33h.19v-.32h-.22v-.33h-.2v-.33H.77v.33h.39v.33H1v.32H.77v.33H.58v-.33H.39v-.32h-.2v-.33H0zm0 1.31h.19v.33H0zm2.13 1h.11v.32h-.11zm-.39.65h.19v.33h.2v.33h.11V10h-.11v-.16h-.2v-.33h-.19zm-.39 1h.2V10h-.2z"/><path d="M3.67 0h-.58v.33H2.9v.33h-.19V1h-.2v.33h-.19v.33h.19V2h.2v.3h.19v.32h.19V3h.2v.33h.19V3h.19v-.38h.19V2.3h.2V2h.19v-.36h.19v-.33h-.19V1h-.19V.66h-.2V.33h-.19zm-.19.66h-.19V1h-.2v.33H2.9v.33h.19V2h.2v.3h.19V2h.19v-.36h.19v-.33h-.19V1h-.19zm0 .65h-.19v.33h.19zm1-1h-.23v.35h.19zm0 2h-.23v.32h.19zM2.32 0H2.2v.66h.12zm0 2.3H2.2V3h.12zm1.74.7h-.2v.33h-.19v.33h-.19v.32h.19v.33h.19v.33h.2v-.38h.19v-.33h.19v-.32h-.19v-.33h-.19zm0 .66h-.2v.32h.2zM2.9 3h-.19v.33h-.2v.33h-.19v.32h.19v.33h.2v.33h.19v-.38h.19v-.33h.2v-.32h-.2v-.33H2.9zm0 .66h-.19v.32h.19zm1.54 1.26h-.19v.33h.19zm-2.12-.33H2.2v.66h.12zM4.44 5.9h-.19v-.33h-.19v-.32h-.2v-.33h-.19v-.33h-.19v-.33h-.19v.33h-.2v.33H2.9v.33h-.19v.32h-.2v.33h-.19v.33H2.2v1.31h.12v.33h.19v.33h.2v.32h.19v.33h.19v.33h.2V10h.38v-.16h.19v-.33h.2v-.33h.19v-.33h.19v-1h-.19v.35h-.19v.32h-.2v.33h-.19v-.33h-.19V8.2h-.19v-.33h-.2v-.33H2.9v-.33h-.19v-.32h.19v-.33h.19v-.33h.58v.33h-.38v.33h.19v.32h.19v.33h.19v-.33h.2v-.32h.19v-.33h.19zm0 1.31h-.19v.33h.19zm-2.12 1H2.2v.32h.12zm.39.65h-.2v.33h-.19v.33H2.2V10h.12v-.16h.19v-.33h.2zm.38 1H2.9V10h.19z"/></g><g fill="#c8313e" fill-rule="evenodd"><path d="M.77 20h.58v-.33h.2v-.33h.19V19h.19v-.33h.2v-.33h-.2V18h-.19v-.3h-.19v-.32h-.2v-.33h-.19v-.33H1v.33H.77v.33H.58v.32H.39v.3h-.2v.33H0v.33h.19V19h.2v.32h.19v.33h.19zm.2-.66h.19V19h.19v-.33h.2v-.33h-.2V18h-.19v-.3H1v.3H.77v.33H.58v.33h.19V19H1zm0-.65h.19v-.33H1zm-1 1h.22v-.33H0zm0-2h.22v-.32H0zM2.13 20h.11v-.66h-.11zm0-2.3h.11v-.65h-.11zm-1.74-.65h.19v-.33h.19v-.33H1v-.32H.77v-.33H.58v-.33H.39v.33h-.2v.33H0v.32h.19v.33h.2zm0-.66h.19v-.32H.39zm1.16.66h.19v-.33h.19v-.33h.2v-.32h-.2v-.33h-.19v-.33h-.19v.33h-.2v.33h-.19v.32h.19v.33h.2zm0-.66h.19v-.32h-.19zM0 15.08h.19v-.33H0zm2.13.33h.11v-.66h-.11zM0 14.1h.19v.33h.2v.32h.19v.33h.19v.33H1v.33h.19v-.33h.19v-.33h.2v-.33h.19v-.32h.19v-.33h.2v-.33h.11v-1.31h-.14v-.33h-.2v-.33h-.19v-.32h-.19v-.33h-.2v-.33h-.19V10H.77v.19H.58v.33H.39v.33h-.2v.33H0v1h.19v-.38h.2v-.32h.19v-.33h.19v.33H1v.32h.19v.33h.19v.33h.2v.33h.19v.32h-.22v.33h-.2v.33H.77v-.33h.39v-.33H1v-.32H.77v-.33H.58v.33H.39v.32h-.2v.33H0zm0-1.31h.19v-.33H0zm2.13-1h.11v-.32h-.11zm-.39-.65h.19v-.33h.2v-.33h.11V10h-.11v.19h-.2v.33h-.19zm-.39-1h.2V10h-.2z"/><path d="M3.67 20h-.58v-.33H2.9v-.33h-.19V19h-.2v-.33h-.19v-.33h.19V18h.2v-.3h.19v-.32h.19v-.33h.2v-.33h.19v.33h.19v.33h.19v.32h.2v.3h.19v.33h.19v.33h-.19V19h-.19v.32h-.2v.33h-.19zm-.19-.66h-.19V19h-.2v-.33H2.9v-.33h.19V18h.2v-.3h.19v.3h.19v.33h.19v.33h-.19V19h-.19zm0-.65h-.19v-.33h.19zm1 1h-.23v-.33h.19zm0-2h-.23v-.32h.19zM2.32 20H2.2v-.66h.12zm0-2.3H2.2v-.65h.12zm1.74-.65h-.2v-.33h-.19v-.33h-.19v-.32h.19v-.33h.19v-.33h.2v.33h.19v.33h.19v.32h-.19v.33h-.19zm0-.66h-.2v-.32h.2zm-1.16.66h-.19v-.33h-.2v-.33h-.19v-.32h.19v-.33h.2v-.33h.19v.33h.19v.33h.2v.32h-.2v.33H2.9zm0-.66h-.19v-.32h.19zm1.54-1.31h-.19v-.33h.19zm-2.12.33H2.2v-.66h.12zm2.12-1.31h-.19v.33h-.19v.32h-.2v.33h-.19v.33h-.19v.33h-.19v-.33h-.2v-.33H2.9v-.33h-.19v-.32h-.2v-.33h-.19v-.33H2.2v-1.31h.12v-.33h.19v-.33h.2v-.32h.19v-.33h.19v-.33h.2V10h.38v.19h.19v.33h.2v.33h.19v.33h.19v1h-.19v-.38h-.19v-.32h-.2v-.33h-.19v.33h-.19v.32h-.19v.33h-.2v.33H2.9v.33h-.19v.32h.19v.33h.19v.33h.58v-.33h-.38v-.33h.19v-.32h.19v-.33h.19v.33h.2v.32h.19v.33h.19zm0-1.31h-.19v-.33h.19zm-2.12-1H2.2v-.32h.12zm.39-.65h-.2v-.33h-.19v-.33H2.2V10h.12v.19h.19v.33h.2zm.38-1H2.9V10h.19z"/></g></svg>