<svg id="Слой_1" xmlns="http://www.w3.org/2000/svg" viewBox="0 0 40 20"><path d="M0,0H40V20H0Z" fill="#1eb53a"/><path d="M0,0H40V10H0Z" fill="#0099b5"/><path d="M0,6.4H40v7.2H0Z" fill="#ce1126"/><path d="M0,6.8H40v6.4H0Z" fill="#fff"/><circle cx="5.6" cy="3.2" r="2.4" fill="#fff"/><circle cx="6.4" cy="3.2" r="2.4" fill="#0099b5"/><g id="e"><g id="d"><g id="c"><g id="b"><path id="a" d="M10.88,4.64l-.15.46.23.07" fill="#fff"/><path id="a-2" d="M10.88,4.64,11,5.1l-.23.07" fill="#fff"/></g><g id="b-2"><path id="a-3" d="M11.34,5h-.48v.24" fill="#fff"/><path id="a-4" d="M11.34,5,11,5.25l-.14-.19" fill="#fff"/></g></g><g id="b-3"><path id="a-5" d="M10.42,5l.39.28L11,5.06" fill="#fff"/><path id="a-6" d="M10.42,5h.48v.24" fill="#fff"/></g><g id="c-2"><g id="b-4"><path id="a-7" d="M11.16,5.51,11,5.05l-.22.08" fill="#fff"/><path id="a-8" d="M11.16,5.51l-.39-.28.14-.2" fill="#fff"/></g><g id="b-5"><path id="a-9" d="M10.6,5.51,11,5.23,10.85,5" fill="#fff"/><path id="a-10" d="M10.6,5.51l.15-.46.22.08" fill="#fff"/></g></g></g><g id="d-2"><g id="c-3"><g id="b-6"><path id="a-11" d="M10.88,2.72l-.15.46.23.07" fill="#fff"/><path id="a-12" d="M10.88,2.72l.15.46-.23.07" fill="#fff"/></g><g id="b-7"><path id="a-13" d="M11.34,3.05h-.48v.24" fill="#fff"/><path id="a-14" d="M11.34,3.05,11,3.33l-.14-.19" fill="#fff"/></g></g><g id="b-8"><path id="a-15" d="M10.42,3.05l.39.28L11,3.14" fill="#fff"/><path id="a-16" d="M10.42,3.05h.48v.24" fill="#fff"/></g><g id="c-4"><g id="b-9"><path id="a-17" d="M11.16,3.59,11,3.13l-.22.08" fill="#fff"/><path id="a-18" d="M11.16,3.59l-.39-.28.14-.2" fill="#fff"/></g><g id="b-10"><path id="a-19" d="M10.6,3.59,11,3.31l-.14-.2" fill="#fff"/><path id="a-20" d="M10.6,3.59l.15-.46.22.08" fill="#fff"/></g></g></g><g id="d-3"><g id="c-5"><g id="b-11"><path id="a-21" d="M10.88.8l-.15.46.23.07" fill="#fff"/><path id="a-22" d="M10.88.8l.15.46-.23.07" fill="#fff"/></g><g id="b-12"><path id="a-23" d="M11.34,1.13h-.48v.24" fill="#fff"/><path id="a-24" d="M11.34,1.13,11,1.41l-.14-.19" fill="#fff"/></g></g><g id="b-13"><path id="a-25" d="M10.42,1.13l.39.28L11,1.22" fill="#fff"/><path id="a-26" d="M10.42,1.13h.48v.24" fill="#fff"/></g><g id="c-6"><g id="b-14"><path id="a-27" d="M11.16,1.67,11,1.21l-.22.08" fill="#fff"/><path id="a-28" d="M11.16,1.67l-.39-.28.14-.2" fill="#fff"/></g><g id="b-15"><path id="a-29" d="M10.6,1.67,11,1.39l-.14-.2" fill="#fff"/><path id="a-30" d="M10.6,1.67l.15-.46.22.08" fill="#fff"/></g></g></g></g><g id="e-2"><g id="d-4"><g id="c-7"><g id="b-16"><path id="a-31" d="M12.8,4.64l-.15.46.23.07" fill="#fff"/><path id="a-32" d="M12.8,4.64,13,5.1l-.23.07" fill="#fff"/></g><g id="b-17"><path id="a-33" d="M13.26,5h-.48v.24" fill="#fff"/><path id="a-34" d="M13.26,5l-.39.28-.14-.19" fill="#fff"/></g></g><g id="b-18"><path id="a-35" d="M12.34,5l.39.28.14-.19" fill="#fff"/><path id="a-36" d="M12.34,5h.48v.24" fill="#fff"/></g><g id="c-8"><g id="b-19"><path id="a-37" d="M13.08,5.51l-.15-.46-.22.08" fill="#fff"/><path id="a-38" d="M13.08,5.51l-.39-.28.14-.2" fill="#fff"/></g><g id="b-20"><path id="a-39" d="M12.52,5.51l.39-.28L12.77,5" fill="#fff"/><path id="a-40" d="M12.52,5.51l.15-.46.22.08" fill="#fff"/></g></g></g><g id="d-5"><g id="c-9"><g id="b-21"><path id="a-41" d="M12.8,2.72l-.15.46.23.07" fill="#fff"/><path id="a-42" d="M12.8,2.72l.15.46-.23.07" fill="#fff"/></g><g id="b-22"><path id="a-43" d="M13.26,3.05h-.48v.24" fill="#fff"/><path id="a-44" d="M13.26,3.05l-.39.28-.14-.19" fill="#fff"/></g></g><g id="b-23"><path id="a-45" d="M12.34,3.05l.39.28.14-.19" fill="#fff"/><path id="a-46" d="M12.34,3.05h.48v.24" fill="#fff"/></g><g id="c-10"><g id="b-24"><path id="a-47" d="M13.08,3.59l-.15-.46-.22.08" fill="#fff"/><path id="a-48" d="M13.08,3.59l-.39-.28.14-.2" fill="#fff"/></g><g id="b-25"><path id="a-49" d="M12.52,3.59l.39-.28-.14-.2" fill="#fff"/><path id="a-50" d="M12.52,3.59l.15-.46.22.08" fill="#fff"/></g></g></g><g id="d-6"><g id="c-11"><g id="b-26"><path id="a-51" d="M12.8.8l-.15.46.23.07" fill="#fff"/><path id="a-52" d="M12.8.8l.15.46-.23.07" fill="#fff"/></g><g id="b-27"><path id="a-53" d="M13.26,1.13h-.48v.24" fill="#fff"/><path id="a-54" d="M13.26,1.13l-.39.28-.14-.19" fill="#fff"/></g></g><g id="b-28"><path id="a-55" d="M12.34,1.13l.39.28.14-.19" fill="#fff"/><path id="a-56" d="M12.34,1.13h.48v.24" fill="#fff"/></g><g id="c-12"><g id="b-29"><path id="a-57" d="M13.08,1.67l-.15-.46-.22.08" fill="#fff"/><path id="a-58" d="M13.08,1.67l-.39-.28.14-.2" fill="#fff"/></g><g id="b-30"><path id="a-59" d="M12.52,1.67l.39-.28-.14-.2" fill="#fff"/><path id="a-60" d="M12.52,1.67l.15-.46.22.08" fill="#fff"/></g></g></g></g><g id="e-3"><g id="d-7"><g id="c-13"><g id="b-31"><path id="a-61" d="M14.72,4.64l-.15.46.23.07" fill="#fff"/><path id="a-62" d="M14.72,4.64l.15.46-.23.07" fill="#fff"/></g><g id="b-32"><path id="a-63" d="M15.18,5H14.7v.24" fill="#fff"/><path id="a-64" d="M15.18,5l-.39.28-.14-.19" fill="#fff"/></g></g><g id="b-33"><path id="a-65" d="M14.26,5l.39.28.14-.19" fill="#fff"/><path id="a-66" d="M14.26,5h.48v.24" fill="#fff"/></g><g id="c-14"><g id="b-34"><path id="a-67" d="M15,5.51l-.15-.46-.22.08" fill="#fff"/><path id="a-68" d="M15,5.51l-.39-.28.14-.2" fill="#fff"/></g><g id="b-35"><path id="a-69" d="M14.44,5.51l.39-.28L14.69,5" fill="#fff"/><path id="a-70" d="M14.44,5.51l.15-.46.22.08" fill="#fff"/></g></g></g><g id="d-8"><g id="c-15"><g id="b-36"><path id="a-71" d="M14.72,2.72l-.15.46.23.07" fill="#fff"/><path id="a-72" d="M14.72,2.72l.15.46-.23.07" fill="#fff"/></g><g id="b-37"><path id="a-73" d="M15.18,3.05H14.7v.24" fill="#fff"/><path id="a-74" d="M15.18,3.05l-.39.28-.14-.19" fill="#fff"/></g></g><g id="b-38"><path id="a-75" d="M14.26,3.05l.39.28.14-.19" fill="#fff"/><path id="a-76" d="M14.26,3.05h.48v.24" fill="#fff"/></g><g id="c-16"><g id="b-39"><path id="a-77" d="M15,3.59l-.15-.46-.22.08" fill="#fff"/><path id="a-78" d="M15,3.59l-.39-.28.14-.2" fill="#fff"/></g><g id="b-40"><path id="a-79" d="M14.44,3.59l.39-.28-.14-.2" fill="#fff"/><path id="a-80" d="M14.44,3.59l.15-.46.22.08" fill="#fff"/></g></g></g><g id="d-9"><g id="c-17"><g id="b-41"><path id="a-81" d="M14.72.8l-.15.46.23.07" fill="#fff"/><path id="a-82" d="M14.72.8l.15.46-.23.07" fill="#fff"/></g><g id="b-42"><path id="a-83" d="M15.18,1.13H14.7v.24" fill="#fff"/><path id="a-84" d="M15.18,1.13l-.39.28-.14-.19" fill="#fff"/></g></g><g id="b-43"><path id="a-85" d="M14.26,1.13l.39.28.14-.19" fill="#fff"/><path id="a-86" d="M14.26,1.13h.48v.24" fill="#fff"/></g><g id="c-18"><g id="b-44"><path id="a-87" d="M15,1.67l-.15-.46-.22.08" fill="#fff"/><path id="a-88" d="M15,1.67l-.39-.28.14-.2" fill="#fff"/></g><g id="b-45"><path id="a-89" d="M14.44,1.67l.39-.28-.14-.2" fill="#fff"/><path id="a-90" d="M14.44,1.67l.15-.46.22.08" fill="#fff"/></g></g></g></g><g id="d-10"><g id="c-19"><g id="b-46"><path id="a-91" d="M7,4.64l-.15.46.23.07" fill="#fff"/><path id="a-92" d="M7,4.64l.15.46L7,5.17" fill="#fff"/></g><g id="b-47"><path id="a-93" d="M7.5,5H7v.24" fill="#fff"/><path id="a-94" d="M7.5,5l-.39.28L7,5.06" fill="#fff"/></g></g><g id="b-48"><path id="a-95" d="M6.58,5,7,5.25l.14-.19" fill="#fff"/><path id="a-96" d="M6.58,5h.48v.24" fill="#fff"/></g><g id="c-20"><g id="b-49"><path id="a-97" d="M7.32,5.51l-.15-.46L7,5.13" fill="#fff"/><path id="a-98" d="M7.32,5.51l-.39-.28L7.07,5" fill="#fff"/></g><g id="b-50"><path id="a-99" d="M6.76,5.51l.39-.28L7,5" fill="#fff"/><path id="a-100" d="M6.76,5.51l.15-.46.22.08" fill="#fff"/></g></g></g><g id="d-11"><g id="c-21"><g id="b-51"><path id="a-101" d="M9,4.64l-.15.46L9,5.17" fill="#fff"/><path id="a-102" d="M9,4.64l.15.46-.23.07" fill="#fff"/></g><g id="b-52"><path id="a-103" d="M9.42,5H8.94v.24" fill="#fff"/><path id="a-104" d="M9.42,5,9,5.25l-.14-.19" fill="#fff"/></g></g><g id="b-53"><path id="a-105" d="M8.5,5l.39.28L9,5.06" fill="#fff"/><path id="a-106" d="M8.5,5H9v.24" fill="#fff"/></g><g id="c-22"><g id="b-54"><path id="a-107" d="M9.24,5.51l-.15-.46-.22.08" fill="#fff"/><path id="a-108" d="M9.24,5.51l-.39-.28L9,5" fill="#fff"/></g><g id="b-55"><path id="a-109" d="M8.68,5.51l.39-.28L8.93,5" fill="#fff"/><path id="a-110" d="M8.68,5.51l.15-.46.22.08" fill="#fff"/></g></g></g><g id="d-12"><g id="c-23"><g id="b-56"><path id="a-111" d="M9,2.72l-.15.46L9,3.25" fill="#fff"/><path id="a-112" d="M9,2.72l.15.46-.23.07" fill="#fff"/></g><g id="b-57"><path id="a-113" d="M9.42,3.05H8.94v.24" fill="#fff"/><path id="a-114" d="M9.42,3.05,9,3.33l-.14-.19" fill="#fff"/></g></g><g id="b-58"><path id="a-115" d="M8.5,3.05l.39.28L9,3.14" fill="#fff"/><path id="a-116" d="M8.5,3.05H9v.24" fill="#fff"/></g><g id="c-24"><g id="b-59"><path id="a-117" d="M9.24,3.59l-.15-.46-.22.08" fill="#fff"/><path id="a-118" d="M9.24,3.59l-.39-.28L9,3.11" fill="#fff"/></g><g id="b-60"><path id="a-119" d="M8.68,3.59l.39-.28-.14-.2" fill="#fff"/><path id="a-120" d="M8.68,3.59l.15-.46.22.08" fill="#fff"/></g></g></g></svg>
