<svg xmlns="http://www.w3.org/2000/svg" viewBox="0 0 40 20"><path d="M0 0h40v20H0z" fill="#00afca"/><circle cx="21.61" cy="8.4" r="2.69" fill="#fec50c"/><path d="M21.61 5.34a.2.2 0 00.22-.22 7.9 7.9 0 00-.22-.92 7.9 7.9 0 00-.22.92.2.2 0 00.22.22zm3.06 3.06a.2.2 0 00.22.22 7.9 7.9 0 00.92-.22 7.9 7.9 0 00-.92-.22.2.2 0 00-.22.22zm-3.06 3.06a.2.2 0 00-.22.22 7.9 7.9 0 00.22.92 7.9 7.9 0 00.22-.92.2.2 0 00-.22-.22zM18.55 8.4a.2.2 0 00-.22-.22 7.9 7.9 0 00-.92.22 7.9 7.9 0 00.92.22.2.2 0 00.22-.22zm4.23-2.83a.2.2 0 00.29-.12 7.9 7.9 0 00.15-.93 7.5 7.5 0 00-.56.77.2.2 0 00.12.28zm1.65 4a.21.21 0 00.13.29 7.9 7.9 0 00.93.15 7.5 7.5 0 00-.77-.56.21.21 0 00-.29.12zm-3.99 1.66a.2.2 0 00-.29.12 7.9 7.9 0 00-.15.93 7.5 7.5 0 00.56-.77.2.2 0 00-.12-.28zm-1.66-4a.2.2 0 00-.12-.29 7.9 7.9 0 00-.93-.15 8.44 8.44 0 00.76.56.2.2 0 00.29-.12zm4.99-.99a.2.2 0 00.31 0 7.61 7.61 0 00.5-.81 7.61 7.61 0 00-.81.5.2.2 0 000 .31zm0 4.32a.2.2 0 000 .31 7.61 7.61 0 00.81.5 7.61 7.61 0 00-.5-.81.2.2 0 00-.31 0zm-4.32 0a.21.21 0 00-.32 0 9.19 9.19 0 00-.49.81 7.61 7.61 0 00.81-.5.2.2 0 000-.31zm0-4.32a.2.2 0 000-.31 7.61 7.61 0 00-.81-.5 9.19 9.19 0 00.49.81.21.21 0 00.32 0zm4.98.99a.21.21 0 00.29.12 7.5 7.5 0 00.77-.56 7.9 7.9 0 00-.93.15.2.2 0 00-.13.29zm-1.65 4a.2.2 0 00-.12.28 7.5 7.5 0 00.56.77 7.9 7.9 0 00-.15-.93.2.2 0 00-.29-.12zm-4-1.66a.2.2 0 00-.29-.12 8.44 8.44 0 00-.76.56 7.9 7.9 0 00.93-.15.2.2 0 00.12-.29zm1.66-4a.2.2 0 00.12-.28 7.5 7.5 0 00-.56-.77 7.9 7.9 0 00.15.93.2.2 0 00.29.12zm1.77-.17a.21.21 0 00.26-.17 8.09 8.09 0 000-1 7.34 7.34 0 00-.4.86.2.2 0 00.14.31zm2.4 3.6a.21.21 0 00.17.26 8.09 8.09 0 00.95 0 9.46 9.46 0 00-.86-.4.2.2 0 00-.26.14zM21 11.4a.21.21 0 00-.26.17 8.09 8.09 0 000 .95 9.46 9.46 0 00.4-.86.2.2 0 00-.14-.26zm-2.39-3.6a.21.21 0 00-.17-.26 8.09 8.09 0 00-1 0 9.46 9.46 0 00.86.4.2.2 0 00.31-.14zm4.7-1.94a.21.21 0 00.3-.06 8.28 8.28 0 00.33-.89 8.53 8.53 0 00-.69.64.2.2 0 00.06.31zm.84 4.24a.2.2 0 00.06.31c.14.08.89.32.89.32a8.53 8.53 0 00-.64-.69.2.2 0 00-.31.06zm-4.24.84a.22.22 0 00-.31.06c-.08.14-.33.89-.33.89a8.4 8.4 0 00.7-.64.2.2 0 00-.06-.31zm-.84-4.24a.21.21 0 00-.07-.31c-.13-.08-.88-.32-.88-.32a8.53 8.53 0 00.64.69.2.2 0 00.31-.06zm5.08 0a.2.2 0 00.31.06 8.53 8.53 0 00.64-.69s-.75.24-.89.32a.2.2 0 00-.06.31zm-.84 4.24a.2.2 0 00-.06.31 8.53 8.53 0 00.69.64 8.28 8.28 0 00-.33-.89.2.2 0 00-.3-.06zm-4.24-.84a.2.2 0 00-.31-.06 8.53 8.53 0 00-.64.69s.75-.24.88-.32a.21.21 0 00.07-.31zm.84-4.24a.2.2 0 00.09-.31 8.4 8.4 0 00-.7-.64s.25.75.33.89a.21.21 0 00.28.06zm4.7 1.94a.2.2 0 00.26.18 9.46 9.46 0 00.86-.4 8.09 8.09 0 00-.95 0 .21.21 0 00-.17.22zm-2.4 3.6a.2.2 0 00-.18.26 7.34 7.34 0 00.4.86 8.09 8.09 0 000-.95.21.21 0 00-.22-.17zM18.61 9a.2.2 0 00-.26-.18 9.46 9.46 0 00-.86.4 8.09 8.09 0 001 0 .21.21 0 00.12-.22zM21 5.4a.2.2 0 00.18-.26 9.46 9.46 0 00-.4-.86 8.09 8.09 0 000 1 .21.21 0 00.22.12zm.13 8.83h-.21l-.28.07h-.1a.07.07 0 010 .05h-.32a.45.45 0 00-.19.14.23.23 0 000 .11.32.32 0 000 .14.27.27 0 01.14-.07v.05a1.31 1.31 0 01.43-.08h1.24a2.62 2.62 0 00.28 0h.08a.25.25 0 00-.14 0h-.46a1.13 1.13 0 01-.31-.06h-.2a.44.44 0 01-.2 0 1.39 1.39 0 01.15-.19h-.12l.21-.16z" fill="#fec50c"/><path d="M24.24 14.92c-.14.09-.25-.07-.37-.11s-.1.2-.18.28-.21 0-.2-.14c-.12.09-.18.31-.37.28s-.12-.23-.22-.05-.2.21-.28.08-.08-.24-.14-.07a.23.23 0 01-.3.17c-.08-.06.05-.28 0-.26s-.21.31-.4.29 0-.22 0-.31c-.09.12-.2.3-.37.31s0-.25 0-.27-.35.28-.56.22c.08-.31.43-.43.72-.45a6.34 6.34 0 001.43-.13c.08 0 .27-.11.2-.22s.15-.06.17-.16.1-.11.21-.12c.49 0 1 .08 1.46.1a.33.33 0 01-.44.33c-.1 0-.25-.23-.22 0s0 .22-.1.28m-4.14-.48c.11.1.19 0 .29-.07a3.58 3.58 0 001-.55 1.41 1.41 0 01.59-.4c.49-.14 1-.12 1.48-.26a4.23 4.23 0 011.53-1c.11 0 .16-.13.2-.24a2.59 2.59 0 01.79-.79.77.77 0 01.51-.09.83.83 0 01-.27.53c.12 0 .22-.07.33-.07 0 .21-.18.32-.31.45.07 0 .33 0 .19.11a5.14 5.14 0 00-.55.35c.15 0 .17.06 0 .12s-.24.08-.26.19-.05.14-.12.16-.25.09-.09.18a.32.32 0 01-.31.11c0 .1.09.22 0 .27a2.16 2.16 0 01-1.07.45 2.25 2.25 0 001.41-.32c.06-.07.35-.14.18-.19s-.24-.07-.25-.13c.23-.14.52-.09.76-.17 0-.08-.19-.06-.26-.08s-.16 0 0-.07a2 2 0 00.62-.2c-.15-.07-.33 0-.48-.06a4.53 4.53 0 00.8-.3c.1-.12-.14-.08-.21-.08s-.21 0-.05-.1a3 3 0 00.83-.63c0-.07.11-.27 0-.2s-.36.29-.59.22a4.81 4.81 0 001.15-1.19c0-.13-.2-.15-.25 0a3.55 3.55 0 01-.89.75 5.52 5.52 0 00.73-1.19c.06-.13.2-.27.12-.4s-.28 0-.34.11a5.45 5.45 0 01-.67.85 3.44 3.44 0 00.51-1.51c0-.11 0-.27-.18-.25s-.09.2-.14.29a3.22 3.22 0 01-.38 1.09 2.34 2.34 0 00.07-.91c0-.14-.25-.08-.22.05A4.76 4.76 0 0124 12.46a5 5 0 01-1.72.58 2.63 2.63 0 00-.49.07c-.38.29-.6.77-1.08.92-.21.1-.49.13-.64.32a.28.28 0 000 .09" fill="#fec50c"/><path d="M21.52 13.1a2.93 2.93 0 01-.21.39 1.53 1.53 0 00-1-.26 1.22 1.22 0 01-.81-.23 5.43 5.43 0 00-.68-.59 1.49 1.49 0 01-.66-.31c-.41-.33-.64-.81-1-1.15a2.19 2.19 0 00-.25-.2c-.08 0-.05.19-.14.11s-.19 0-.2 0a1.13 1.13 0 01.26.54h-.27a1.83 1.83 0 00.4.43h-.25a1.16 1.16 0 00.53.29c.05.06-.06.16 0 .21s.22.06.1.12a.09.09 0 00.05.17c.07 0 .21 0 .22.1s-.23.12-.08.18a.94.94 0 00.46.13c-.08.07-.18.11-.26.17a6.24 6.24 0 001.19.5 2.75 2.75 0 00.49.14 4 4 0 01-1.4-.37l-.7-.29c.1-.05.22-.06.33-.11a1.91 1.91 0 01-.66-.18c0-.06.14-.06.21-.09s.19-.06 0-.07a1.46 1.46 0 01-.51-.12c0-.07.17 0 .23-.07a.45.45 0 00.23-.08c-.26-.11-.6 0-.8-.26s.14 0 .2 0a1.18 1.18 0 00.42 0 3.29 3.29 0 01-1.07-.63c0-.05-.13-.19-.05-.2s.38.27.63.23c0 0-.14-.11-.19-.17a4.5 4.5 0 01-.93-1c0-.14.19-.16.24-.05a4.16 4.16 0 00.84.73c.12.06-.06-.07-.09-.11a6.24 6.24 0 01-.82-1.16c0-.08-.1-.21 0-.25a.23.23 0 01.29.12 5.52 5.52 0 00.67.86 3.38 3.38 0 01-.5-1.5c0-.1 0-.26.15-.25s.1.13.14.2a4.15 4.15 0 00.4 1.17 2.43 2.43 0 01-.07-.89.11.11 0 01.19-.07c.06.15.07.32.12.47a4.77 4.77 0 001.86 2.55 4.87 4.87 0 002.47.84h.24" fill="#fec50c"/><circle cx="20.4" cy="14.42" r=".05" fill="#fec50c"/><circle cx="20.4" cy="14.41" r=".02" fill="#fec50c" stroke="#00afca" stroke-miterlimit="2" stroke-width=".19"/><g fill="#fec50c"><path d="M2.4 1.46s-.19-.16-.26-.08.33.78.33 1-.26.47-.56.53a2.48 2.48 0 01-.55 0 .26.26 0 01.21-.12.43.43 0 01-.24-.4c0-.32.13-.46.13-.82a1.12 1.12 0 00-.16-.47.39.39 0 01.35.52.2.2 0 00.13 0 .21.21 0 01-.06.19h.12a.23.23 0 01-.13.19.32.32 0 01.42.31.23.23 0 01-.2.25.17.17 0 01-.1 0 .15.15 0 000 .13c-.07 0-.12-.06-.09-.15a.26.26 0 01-.13-.06.14.14 0 01.13-.06c0-.09 0-.13.07-.17s0 .17.07.17A.08.08 0 002 2.25a.15.15 0 00-.18-.14c-.12 0-.23.08-.23.28s.15.28.35.29.31-.09.31-.28-.35-.79-.35-1a.26.26 0 01.29-.25.55.55 0 01.34.18l-.11.14z"/><path d="M2.44 5.84a.63.63 0 01-.65.62.53.53 0 01-.59-.54.9.9 0 01.11-.44s.69-1.32.88-1.83a.55.55 0 000-.24.33.33 0 00-.32-.31.34.34 0 00-.32.31c0 .2.1.29.21.29S2 3.65 2 3.56s0-.1-.08-.1-.08.16-.08.16a.11.11 0 01-.08-.14.26.26 0 01-.11-.07.24.24 0 01.11-.06c0-.09 0-.13.09-.15a.12.12 0 000 .1.22.22 0 01.3.22.32.32 0 01-.41.34.19.19 0 01.1.17h-.1a.34.34 0 01.07.22c-.05 0-.09-.07-.16 0a.38.38 0 01-.33.53.67.67 0 00.17-.42c0-.47-.13-.55-.13-.88A.48.48 0 011.55 3a.25.25 0 01-.19-.13 1.2 1.2 0 01.68 0 .48.48 0 01.36.24.74.74 0 010 .58c-.13.26-.71 1.51-.9 1.9a.6.6 0 00-.06.27.33.33 0 00.34.32c.15 0 .31-.11.31-.25S2 5.82 2 5.82s-.16.14-.13.24a.24.24 0 01-.15-.23.24.24 0 01-.17-.09.22.22 0 01.17-.09.19.19 0 01.15-.23c0 .1-.05.22.13.22a.32.32 0 01.28.1V5.2c0-.16-.21-.16-.36-.11a.34.34 0 01.42-.26.21.21 0 01-.12-.2.52.52 0 01.2-.37v1.58z"/><path d="M2.44 7.06a.62.62 0 00-.65-.61.53.53 0 00-.59.55.87.87 0 00.11.44s.69 1.3.88 1.81a.57.57 0 010 .24.33.33 0 01-.32.31.33.33 0 01-.32-.31c0-.2.1-.29.21-.29s.19.05.19.14 0 .1-.08.1-.08-.16-.08-.16a.12.12 0 00-.08.15.24.24 0 00-.11.06.24.24 0 00.11.06c0 .09 0 .13.09.15a.1.1 0 010-.09.23.23 0 00.3-.23.33.33 0 00-.38-.38.18.18 0 00.1-.16h-.1a.34.34 0 00.07-.22c-.05 0-.09.07-.16 0a.38.38 0 00-.33-.53.67.67 0 01.17.42c0 .47-.13.55-.13.88a.47.47 0 00.21.38.25.25 0 00-.19.13A1.2 1.2 0 002 10a.48.48 0 00.36-.24.72.72 0 000-.57c-.13-.27-.71-1.52-.9-1.91A.6.6 0 011.44 7a.33.33 0 01.34-.32.3.3 0 01.31.26c0 .09 0 .14-.12.14s-.16-.14-.13-.23a.22.22 0 00-.15.22.29.29 0 00-.17.09.27.27 0 00.17.1c0 .13.06.19.15.22s-.05-.21.13-.21a.33.33 0 00.28-.11v.54c0 .16-.21.16-.36.11a.34.34 0 00.42.26.21.21 0 00-.12.2.52.52 0 00.2.37V7.06zm-.04-5.6s.19-.16.26-.08-.33.78-.33 1 .26.47.56.53a2.48 2.48 0 00.55 0 .26.26 0 00-.21-.12.43.43 0 00.24-.4c0-.32-.13-.46-.13-.82a1.12 1.12 0 01.16-.47.39.39 0 00-.35.52.2.2 0 01-.13 0 .21.21 0 00.06.19h-.12a.23.23 0 00.13.19.32.32 0 00-.42.31.23.23 0 00.2.25.17.17 0 00.1 0 .15.15 0 010 .13c.07 0 .12-.06.09-.15a.26.26 0 00.13-.06.14.14 0 00-.13-.06c0-.09 0-.13-.07-.17s0 .17-.07.17a.08.08 0 01-.09-.09.15.15 0 01.17-.22c.12 0 .23.08.23.28s-.15.28-.35.29-.31-.09-.31-.28.35-.79.35-1a.26.26 0 00-.29-.25.55.55 0 00-.34.18l.11.14z"/><path d="M2.36 5.84a.63.63 0 00.64.62.53.53 0 00.59-.54.9.9 0 00-.11-.44s-.64-1.32-.88-1.83a.55.55 0 010-.24.33.33 0 01.32-.31.34.34 0 01.32.31c0 .2-.1.29-.21.29s-.19-.05-.19-.14 0-.1.08-.1.08.16.08.16a.11.11 0 00.08-.14.26.26 0 00.11-.07.24.24 0 00-.11-.06c0-.09 0-.13-.09-.15a.12.12 0 010 .1.22.22 0 00-.3.22.32.32 0 00.41.34A.19.19 0 003 4h.1a.34.34 0 00-.1.22c.05 0 .09-.07.16 0a.38.38 0 00.33.53.67.67 0 01-.17-.42c0-.47.13-.55.13-.88a.48.48 0 00-.2-.45.25.25 0 00.19-.13 1.2 1.2 0 00-.68 0 .48.48 0 00-.36.24.74.74 0 000 .58c.13.26.71 1.51.9 1.9a.6.6 0 01.06.27.33.33 0 01-.36.36c-.15 0-.31-.11-.31-.25s0-.15.12-.15S3 6 3 6.06a.24.24 0 00.15-.23.24.24 0 00.17-.09.22.22 0 00-.17-.09.19.19 0 00-.15-.23c0 .1 0 .22-.13.22a.32.32 0 00-.28.1V5.2c0-.16.21-.16.36-.11a.34.34 0 00-.42-.26.21.21 0 00.12-.2.52.52 0 00-.2-.37v1.58z"/><path d="M2.36 7.06A.62.62 0 013 6.45a.53.53 0 01.6.55.87.87 0 01-.11.44s-.64 1.32-.88 1.83a.57.57 0 000 .24.32.32 0 00.64 0c0-.2-.1-.29-.21-.29s-.19.05-.19.14 0 .1.08.1.07-.18.07-.18a.12.12 0 01.08.15.24.24 0 01.11.06.24.24 0 01-.11.06c0 .09 0 .13-.09.15a.1.1 0 000-.09.23.23 0 01-.3-.23.33.33 0 01.39-.38.18.18 0 01-.08-.12h.1a.34.34 0 01-.1-.2c.05 0 .09.07.16 0a.38.38 0 01.33-.53.67.67 0 00-.17.42c0 .47.13.55.13.88a.47.47 0 01-.21.38.25.25 0 01.19.13 1.2 1.2 0 01-.68 0 .48.48 0 01-.36-.24.72.72 0 010-.57c.13-.27.71-1.52.9-1.91A.6.6 0 003.36 7 .33.33 0 003 6.68a.3.3 0 00-.31.26c0 .09 0 .14.12.14S3 6.94 3 6.85a.22.22 0 01.15.22.29.29 0 01.17.09.27.27 0 01-.17.1c0 .13-.06.19-.15.22s0-.21-.13-.21a.33.33 0 01-.28-.11v.54c0 .16.21.16.36.11a.34.34 0 01-.42.26.21.21 0 01.12.2.52.52 0 01-.2.37V7.06z"/></g><g fill="#fec50c"><path d="M2.4 18.54s-.19.16-.26.08.33-.78.33-1-.26-.47-.56-.53a2.48 2.48 0 00-.55 0 .26.26 0 00.21.12.43.43 0 00-.24.4c0 .32.13.46.13.82a1.12 1.12 0 01-.16.46.39.39 0 00.35-.52.2.2 0 01.13 0 .21.21 0 00-.06-.19h.12a.23.23 0 00-.13-.19.32.32 0 00.42-.31.23.23 0 00-.2-.25.17.17 0 00-.1 0 .15.15 0 010-.13c-.07 0-.12.06-.09.15a.26.26 0 00-.13.06.14.14 0 00.13.06c0 .09 0 .13.07.17s0-.17.07-.17a.08.08 0 01.09.09.15.15 0 01-.18.14c-.12 0-.23-.08-.23-.28s.15-.28.35-.29.31.09.31.28-.35.79-.35 1a.26.26 0 00.29.25.55.55 0 00.34-.18l-.11-.14z"/><path d="M2.44 14.16a.63.63 0 00-.65-.62.53.53 0 00-.59.54.9.9 0 00.11.44s.64 1.32.88 1.83a.55.55 0 010 .24.33.33 0 01-.32.31.34.34 0 01-.32-.31c0-.2.1-.29.21-.29s.19.05.19.14 0 .1-.08.1-.08-.16-.08-.16a.11.11 0 00-.08.14.26.26 0 00-.11.07.24.24 0 00.11.06c0 .09 0 .13.09.15a.12.12 0 010-.1.22.22 0 00.3-.22.32.32 0 00-.41-.34.19.19 0 00.1-.17h-.1a.34.34 0 00.07-.22c-.05 0-.09.07-.16 0a.38.38 0 00-.33-.53.67.67 0 01.17.42c0 .47-.13.55-.13.88a.48.48 0 00.21.38.25.25 0 00-.19.13 1.2 1.2 0 00.68 0 .48.48 0 00.36-.24.74.74 0 000-.58c-.13-.26-.71-1.51-.9-1.9a.6.6 0 01-.06-.27.33.33 0 01.34-.32c.15 0 .31.11.31.25s0 .15-.12.15-.16-.14-.13-.24a.24.24 0 00-.15.23.24.24 0 00-.17.09.22.22 0 00.17.09.19.19 0 00.15.23c0-.1-.05-.22.13-.22a.32.32 0 00.28-.1v.54c0 .16-.21.16-.36.11a.34.34 0 00.42.26.21.21 0 00-.12.2.52.52 0 00.2.37V14.1z"/><path d="M2.44 12.94a.62.62 0 01-.65.61.53.53 0 01-.59-.55.87.87 0 01.11-.44s.64-1.32.88-1.83a.57.57 0 000-.24.33.33 0 00-.32-.31.33.33 0 00-.32.31c0 .2.1.29.21.29s.19-.05.19-.14 0-.1-.08-.1-.08.16-.08.16a.12.12 0 01-.08-.15.24.24 0 01-.11-.06.24.24 0 01.11-.06c0-.09 0-.13.09-.15a.1.1 0 000 .09.23.23 0 01.3.23.33.33 0 01-.41.34.18.18 0 01.1.16h-.1a.34.34 0 01.07.22c-.05 0-.09-.07-.16 0a.38.38 0 01-.33.53.67.67 0 00.17-.42c0-.47-.13-.55-.13-.88a.47.47 0 01.21-.38.25.25 0 01-.16-.17A1.2 1.2 0 012 10a.48.48 0 01.36.24.72.72 0 010 .57c-.13.27-.71 1.52-.9 1.91a.6.6 0 00-.06.27.33.33 0 00.34.32.3.3 0 00.31-.26c0-.09 0-.14-.12-.14s-.16.14-.13.23a.22.22 0 01-.15-.22.29.29 0 01-.17-.09.27.27 0 01.17-.1c0-.13.06-.19.15-.22s-.05.21.13.21a.33.33 0 01.28.11v-.54c0-.16-.21-.16-.36-.11a.34.34 0 01.42-.26.21.21 0 01-.12-.2.52.52 0 01.2-.37v1.58zm-.04 5.6s.19.16.26.08-.33-.78-.33-1 .26-.47.56-.53a2.48 2.48 0 01.55 0 .26.26 0 01-.21.12.43.43 0 01.24.4c0 .32-.13.46-.13.82a1.12 1.12 0 00.16.46.39.39 0 01-.35-.52.2.2 0 00-.13 0 .21.21 0 01.06-.19h-.12a.23.23 0 01.13-.19.32.32 0 01-.42-.31.23.23 0 01.2-.25.17.17 0 01.1 0 .15.15 0 000-.13c.07 0 .12.06.09.15a.26.26 0 01.13.06.14.14 0 01-.13.06c0 .09 0 .13-.07.17s0-.17-.07-.17a.08.08 0 00-.09.09.15.15 0 00.18.14c.12 0 .23-.08.23-.28s-.15-.28-.35-.29-.31.09-.31.28.35.79.35 1a.26.26 0 01-.29.25.55.55 0 01-.34-.18l.11-.14z"/><path d="M2.36 14.16a.63.63 0 01.64-.62.53.53 0 01.59.54.9.9 0 01-.11.44s-.64 1.32-.88 1.83a.55.55 0 000 .24.33.33 0 00.32.31.34.34 0 00.32-.31c0-.2-.1-.29-.21-.29s-.19.05-.19.14 0 .1.08.1.08-.16.08-.16a.11.11 0 01.08.14.26.26 0 01.11.07.24.24 0 01-.11.06c0 .09 0 .13-.09.15a.12.12 0 000-.1.22.22 0 01-.3-.22.32.32 0 01.41-.34A.19.19 0 013 16h.1a.34.34 0 01-.1-.22c.05 0 .09.07.16 0a.38.38 0 01.33-.53.67.67 0 00-.17.42c0 .47.13.55.13.88a.48.48 0 01-.21.38.25.25 0 01.19.13 1.2 1.2 0 01-.68 0 .48.48 0 01-.36-.24.74.74 0 010-.58c.13-.26.71-1.51.9-1.9a.6.6 0 00.06-.27.33.33 0 00-.35-.29c-.15 0-.31.11-.31.25s0 .15.12.15S3 14 3 13.94a.24.24 0 01.15.23.24.24 0 01.17.09.22.22 0 01-.17.09.19.19 0 01-.15.23c0-.1 0-.22-.13-.22a.32.32 0 01-.28-.1v.54c0 .16.21.16.36.11a.34.34 0 01-.42.26.21.21 0 01.12.2.52.52 0 01-.2.37v-1.58z"/><path d="M2.36 12.94a.62.62 0 00.65.61.53.53 0 00.59-.55.87.87 0 00-.11-.44s-.64-1.32-.88-1.83a.57.57 0 010-.24.32.32 0 01.64 0c0 .2-.1.29-.21.29s-.19-.05-.19-.14 0-.1.08-.1.08.16.08.16a.12.12 0 00.08-.15.24.24 0 00.11-.06.24.24 0 00-.11-.06c0-.09 0-.13-.09-.15a.1.1 0 010 .09.23.23 0 00-.3.23.33.33 0 00.41.34.18.18 0 00-.1.16h.1a.34.34 0 00-.07.22c.05 0 .09-.07.16 0a.38.38 0 00.33.53.67.67 0 01-.17-.42c0-.47.13-.55.13-.88a.47.47 0 00-.21-.38.25.25 0 00.16-.17 1.2 1.2 0 00-.68 0 .48.48 0 00-.36.24.72.72 0 000 .57c.13.27.71 1.52.9 1.91a.6.6 0 01.06.27.33.33 0 01-.34.32.3.3 0 01-.31-.26c0-.09 0-.14.12-.14s.16.14.13.23a.22.22 0 00.15-.22.29.29 0 00.17-.09.27.27 0 00-.17-.1c0-.13-.06-.19-.15-.22s0 .21-.13.21a.33.33 0 00-.28.11v-.54c0-.16.21-.16.36-.11a.34.34 0 00-.42-.26.21.21 0 00.12-.2.52.52 0 00-.2-.37v1.58z"/></g></svg>