<svg width="40" height="40" fill="none" xmlns="http://www.w3.org/2000/svg"><path d="M31.579 18v3c2.233 0 4.375.843 5.954 2.343C39.113 24.843 40 26.878 40 29a7.67 7.67 0 01-1.41 4.42l-2.295-2.18a4.78 4.78 0 00.547-2.24 4.876 4.876 0 00-1.541-3.535A5.407 5.407 0 0031.579 24v3l-4.737-4.5L31.58 18zm0 22v-3c-2.233 0-4.375-.843-5.955-2.343-1.579-1.5-2.466-3.535-2.466-5.657 0-1.64.526-3.16 1.41-4.42l2.295 2.18a4.782 4.782 0 00-.547 2.24c0 1.326.554 2.598 1.541 3.535A5.407 5.407 0 0031.58 34v-3l4.737 4.5L31.58 40zM16.842 0c9.305 0 16.842 3.58 16.842 8s-7.537 8-16.842 8S0 12.42 0 8s7.537-8 16.842-8zM0 12c0 4.42 7.537 8 16.842 8 2.337 0 4.569-.22 6.61-.64-2 1.72-3.452 3.98-4.126 6.56l-2.484.08C7.537 26 0 22.42 0 18v-6zm33.684 0v4h-1.052l-1.264.06c1.474-1.2 2.316-2.58 2.316-4.06zM0 22c0 4.42 7.537 8 16.842 8l2.105-.06c.19 2.12.885 4.06 2 5.82l-4.105.24C7.537 36 0 32.42 0 28v-6z" fill="#0094FF"/></svg>