<svg width="40" height="40" fill="none" xmlns="http://www.w3.org/2000/svg"><path d="M31.25 0c-2.566 0-4.582 1.762-6.03 4.482l-.026-.014c-2.103 4.116-5.233 6.782-8.662 6.782H5c-2.804 0-5 2.746-5 6.25 0 3.506 2.196 6.25 5 6.25a2.5 2.5 0 012.494 2.5V37.5a2.5 2.5 0 002.5 2.5h5a2.5 2.5 0 002.5-2.5v-1.25c0-1.25-1.25-1.809-1.25-2.5V25c0-.029.02-.049.022-.078a1.24 1.24 0 01.14-.493.843.843 0 01.074-.11c.1-.149.226-.271.38-.366.008-.005.01-.013.018-.018.005 0 .008-.005.013-.005.1-.056.22-.069.333-.1 3.155.335 6.011 2.881 7.971 6.716l.031-.015C26.675 33.243 28.686 35 31.25 35 36.995 35 40 26.196 40 17.5S36.995 0 31.25 0zM25 17.5c0-1.296.076-2.549.205-3.75h3.545c1.38 0 2.5 1.68 2.5 3.75 0 2.073-1.12 3.75-2.5 3.75h-3.545A35.146 35.146 0 0125 17.5zm-22.5 0c0-2.07 1.12-3.75 2.5-3.75h8.768c-.776.911-1.268 2.234-1.268 3.75 0 1.519.492 2.841 1.268 3.75H5c-1.38 0-2.5-1.677-2.5-3.75zm12.494 20h-5V26.25c0-.911-.244-1.762-.671-2.5h.872v.015h3.76A3.777 3.777 0 0013.744 25v8.75c0 1.204.672 2.005 1.074 2.483.055.066.12.133.176.207v1.06zm1.538-16.235h-.282v-.015c-1.38 0-2.5-1.677-2.5-3.75 0-2.07 1.12-3.75 2.5-3.75h.282c2.358 0 4.566-.928 6.508-2.523a36.148 36.148 0 00-.54 6.273c0 2.136.183 4.275.543 6.289-1.944-1.597-4.153-2.524-6.51-2.524zM31.25 32.5c-2.523 0-4.688-3.589-5.676-8.75h3.176c2.802 0 5-2.744 5-6.25 0-3.504-2.198-6.25-5-6.25h-3.176c.988-5.159 3.153-8.75 5.676-8.75 3.453 0 6.25 6.716 6.25 15 0 8.284-2.797 15-6.25 15z" fill="#2196F3"/></svg>