<svg xmlns="http://www.w3.org/2000/svg" viewBox="0 0 260 260">
    <rect x="0.27" width="260" height="260" rx="20.47"/>
    <path d="M.27,223.51h108.3s114.24,5.07,95.09-116.74h15.73c16.1,142.28-112.3,130.94-112.3,130.94L.27,237.93S.18,234.18.27,223.51Z"
          fill="#fff"/>
    <path d="M130.89,107.31C163.39,116,153.52,146,153.52,146c-8.93,26.35-45,25.73-45,25.73H.27v13.14h107.9s80.62,1.07,55.22-77.56Z"
          fill="#fff"/>
    <path d="M191.61,107.14c21.3,107.89-83.44,103.61-83.44,103.61H.27V197.6h108.3s73,1.7,71.62-61.78c0,0,.62-11.87-4.09-28.68Z"
          fill="#fff"/>
    <path d="M260.28,42.23H151.34S37.09,37.15,56.24,159H40.52C24.41,16.68,152.82,28,152.82,28l107.45-.12S260.28,32,260.28,42.23Z"
          fill="#fff"/>
    <path d="M128.25,158.41c-32.51-8.72-22.64-38.69-22.64-38.69,8.93-26.34,45-25.73,45-25.73l109.72.21V80.85H151s-80.62-1.06-55.22,77.56Z"
          fill="#fff"/>
    <path d="M68.77,158.59C47.48,50.69,152.21,55,152.21,55H260.27V68.12H151.81s-72.95-1.7-71.62,61.78c0,0-.59,11.87,4.12,28.69Z"
          fill="#fff"/>
</svg>
