<svg xmlns="http://www.w3.org/2000/svg" viewBox="0 0 256.03 256"><rect x=".03" width="256" height="256" rx="30.94"/><path d="M256 32.24l-.11 11.24s-97.91.46-113.26.5C95.38 44.11 73.45 76.67 73 76.25a92.21 92.21 0 00-19.39 37.84c-3 12.63-2.88 26.64.94 43.29H41.16c-2.06-6.85-10.68-50.21 22.27-88.13 0 0 27.56-36.93 79.21-36.93z" fill="#fff"/><path d="M137.52 68.83H256V57H137.34c-42.26 0-63.66 39.69-63.66 39.69-18.15 29.9-4.8 60.69-4.8 60.69h14.44s-11.14-15-5.79-38.47C83 94.92 107.3 69.93 137.52 68.83z" fill="#fff"/><path d="M256 94.81V82s-71.59-.68-116.41 0S90 123.35 90 123.35c-2.89 22.3 9.7 34 9.7 34h20.16s-20.35-6.7-16.15-34.72c0 0 3.19-27.85 34.54-27.85z" fill="#fff"/><path d="M1.3 233.86l112.13-.05c51.65 0 79.2-36.93 79.2-36.93 33-37.92 24.33-81.28 22.27-88.13h-13.36c3.82 16.65 3.9 30.66.94 43.3a92.13 92.13 0 01-19.39 37.84c-.48-.42-22.41 32.14-69.69 32.27-15.35 0-113.37.49-113.37.46s-.34 6.46 1.27 11.24z" fill="#fff"/><path d="M118.54 197.3H0v11.81h118.72c42.26 0 63.66-39.67 63.66-39.67 18.15-29.9 4.8-60.69 4.8-60.69h-14.44s11.14 15 5.79 38.47c-5.48 23.99-29.77 48.99-59.99 50.08z" fill="#fff"/><path d="M0 171.32v12.85s71.59.68 116.41 0 49.65-41.39 49.65-41.39c2.89-22.29-9.7-34-9.7-34h-20.13s20.35 6.71 16.15 34.72c0 0-3.19 27.85-34.53 27.85z" fill="#fff"/></svg>