<svg width="48" height="28" viewBox="0 0 48 28" fill="none" xmlns="http://www.w3.org/2000/svg">
<g filter="url(#filter0_d)">
<path d="M44 0H4V20H44V0Z" fill="#00AFCA"/>
<path d="M25.6095 11.091C27.0957 11.091 28.3005 9.8862 28.3005 8.4C28.3005 6.91379 27.0957 5.70898 25.6095 5.70898C24.1232 5.70898 22.9184 6.91379 22.9184 8.4C22.9184 9.8862 24.1232 11.091 25.6095 11.091Z" fill="#FEC50C"/>
<path d="M25.6095 5.34197C25.7695 5.33997 25.8295 5.23997 25.8295 5.11997C25.8295 4.95997 25.6095 4.19797 25.6095 4.19797C25.6095 4.19797 25.3895 4.95997 25.3895 5.11997C25.3895 5.23997 25.4495 5.34197 25.6095 5.34197Z" fill="#FEC50C"/>
<path d="M25.1293 14.2293C25.0573 14.2333 24.9873 14.2427 24.9187 14.2647C24.8247 14.2773 24.7347 14.31 24.6413 14.3253L24.604 14.3313L24.5413 14.3373C24.5453 14.3547 24.548 14.372 24.548 14.3893C24.548 14.4073 24.546 14.4247 24.5413 14.4393C24.5373 14.4533 24.5247 14.4707 24.5147 14.4813C24.5013 14.496 24.4873 14.5087 24.4707 14.5167C24.4547 14.5247 24.4367 14.528 24.4187 14.5294C24.4007 14.53 24.382 14.5294 24.3647 14.5227C24.3467 14.5167 24.33 14.5054 24.3147 14.492C24.296 14.4967 24.2767 14.5 24.2587 14.502C24.24 14.504 24.2227 14.504 24.206 14.502C24.1873 14.4967 24.168 14.4907 24.15 14.4833C24.132 14.476 24.1147 14.4667 24.098 14.456C24.03 14.496 23.954 14.534 23.9127 14.604C23.8893 14.636 23.8847 14.6727 23.8793 14.7107C23.876 14.7574 23.888 14.8067 23.908 14.85C23.9153 14.8627 23.9213 14.804 23.944 14.796C23.982 14.7647 24.0293 14.742 24.0773 14.7294C24.118 14.7087 24.1127 14.7307 24.096 14.7627C24.092 14.7794 24.0693 14.8427 24.1 14.8107C24.2353 14.7507 24.3853 14.7387 24.5313 14.7274C24.7433 14.7054 24.956 14.7007 25.1687 14.698C25.3687 14.7007 25.5687 14.7034 25.7686 14.7107C25.864 14.7134 25.96 14.7347 26.054 14.7187C26.0766 14.7127 26.112 14.7114 26.1253 14.698C26.0826 14.6734 26.0326 14.6727 25.9853 14.6667H25.604C25.498 14.656 25.3873 14.6547 25.2873 14.6147C25.2607 14.604 25.236 14.5787 25.2107 14.606C25.1727 14.6194 25.132 14.6287 25.092 14.6314C25.022 14.6367 24.952 14.622 24.8873 14.596C24.934 14.5314 24.99 14.4747 25.0413 14.4147C25 14.408 24.96 14.3993 24.9187 14.3893C24.9913 14.3393 25.0587 14.2827 25.1293 14.2293Z" fill="#FEC50C"/>
<path d="M28.244 14.9202C28.0991 15.0072 27.9885 14.8529 27.8674 14.8067C27.7809 14.8536 27.7728 15.0108 27.692 15.0853C27.5953 15.1953 27.4768 15.0545 27.4856 14.946C27.37 15.0435 27.3115 15.2644 27.1245 15.2349C27.0359 15.1626 26.9701 15.0109 26.9024 15.1836C26.8472 15.2681 26.7002 15.3882 26.6241 15.2607C26.6005 15.1481 26.5441 15.0157 26.4828 15.1945C26.4408 15.321 26.3058 15.4141 26.1752 15.3587C26.1038 15.3003 26.2325 15.0842 26.1416 15.0995C26.0056 15.1895 25.9265 15.4127 25.7367 15.3948C25.663 15.3121 25.7814 15.1719 25.7006 15.0801C25.6052 15.2026 25.4993 15.3819 25.3343 15.3948C25.2545 15.3302 25.3375 15.1448 25.2865 15.1174C25.1172 15.2189 24.9385 15.3999 24.7255 15.3432C24.8085 15.0258 25.1553 14.9144 25.447 14.8896C25.9487 14.828 26.4766 14.9414 26.9594 14.7603C27.0374 14.7128 27.2264 14.6455 27.1591 14.5354C27.0995 14.4485 27.3142 14.4824 27.3348 14.3809C27.322 14.2523 27.4333 14.27 27.5421 14.2588C28.0296 14.2377 28.5112 14.3404 28.9972 14.3578C29.0339 14.5947 28.7712 14.761 28.5597 14.6878C28.4587 14.7042 28.3072 14.4555 28.3369 14.6364C28.3165 14.7314 28.3308 14.8568 28.244 14.9202L28.244 14.9202ZM24.0961 14.4352C24.209 14.5386 24.2881 14.4158 24.3936 14.3709C24.7474 14.2492 25.0561 14.0366 25.3605 13.8241C25.5449 13.6715 25.7048 13.4736 25.9524 13.4241C26.4355 13.278 26.949 13.2957 27.434 13.1609C27.8033 12.6553 28.4305 12.4749 28.9559 12.1843C29.0739 12.1477 29.1195 12.0506 29.1571 11.9434C29.3577 11.6268 29.6309 11.3462 29.954 11.1546C30.1069 11.0711 30.2893 11.0229 30.4624 11.0612C30.45 11.2673 30.3317 11.45 30.1889 11.5926C30.3058 11.59 30.4062 11.5162 30.5243 11.5203C30.5647 11.7319 30.3363 11.8426 30.2147 11.9743C30.2824 11.9901 30.5418 12.0097 30.4005 12.0775C30.2203 12.2025 30.0147 12.2883 29.8484 12.4335C30.0018 12.461 30.0193 12.4936 29.8633 12.5491C29.7789 12.6064 29.6165 12.6264 29.6008 12.7379C29.7167 12.8091 29.5474 12.8798 29.4821 12.903C29.3573 12.932 29.2262 12.9863 29.392 13.0811C29.3293 13.1759 29.1947 13.1961 29.0849 13.1867C29.1182 13.2941 29.1664 13.4143 29.0271 13.4617C28.7146 13.6979 28.3479 13.8697 27.955 13.909C28.4458 13.9467 28.9512 13.8556 29.3705 13.5888C29.4258 13.5233 29.7161 13.453 29.5538 13.3979C29.4773 13.3661 29.3134 13.3308 29.3024 13.2725C29.5295 13.1324 29.8156 13.1822 30.0599 13.099C30.0663 13.0199 29.8741 13.0419 29.8025 13.0239C29.6316 13.0099 29.6416 12.9663 29.8064 12.9501C30.0148 12.895 30.2509 12.8841 30.4262 12.7482C30.2835 12.682 30.1039 12.7403 29.9516 12.6863C30.2098 12.5733 30.5144 12.5619 30.7461 12.3922C30.8516 12.2748 30.6109 12.3115 30.5408 12.3143C30.3978 12.3392 30.3317 12.2708 30.4941 12.2113C30.7715 12.0068 31.1228 11.8739 31.3176 11.5774C31.3638 11.511 31.4263 11.311 31.2791 11.383C31.0855 11.4474 30.9151 11.665 30.6945 11.5977C31.1292 11.2608 31.5428 10.8773 31.8398 10.4111C31.8552 10.2766 31.6441 10.2621 31.5892 10.3676C31.31 10.6367 31.0572 10.9543 30.6997 11.123C31.0421 10.7925 31.3252 10.4012 31.5722 9.99561C31.6251 9.87497 31.7675 9.72989 31.6902 9.59595C31.5657 9.49289 31.41 9.58723 31.3453 9.71056C31.1282 9.99394 30.9634 10.3247 30.6842 10.5556C30.9286 10.0891 31.1816 9.5926 31.1878 9.05462C31.187 8.94386 31.1648 8.78075 31.0144 8.80145C30.8952 8.82281 30.9235 9.00127 30.8743 9.09152C30.7661 9.45906 30.7153 9.8571 30.4933 10.1789C30.5433 9.88026 30.6306 9.56894 30.5636 9.26734C30.5322 9.13255 30.3146 9.19052 30.3426 9.32392C30.0826 10.6411 29.1987 11.7931 28.0428 12.4595C27.5136 12.759 26.9224 12.952 26.3209 13.0395C26.1591 13.075 25.9842 13.0542 25.8295 13.1093C25.4548 13.3967 25.2279 13.8775 24.7535 14.028C24.5409 14.1337 24.2636 14.1552 24.1115 14.3527C24.0984 14.378 24.0956 14.4072 24.0961 14.4352" fill="#FEC50C"/>
<path d="M25.5161 13.099C25.4461 13.2261 25.4049 13.3722 25.3149 13.486C25.0441 13.2395 24.6515 13.2477 24.308 13.2313C24.0244 13.2161 23.7161 13.19 23.4967 12.9878C23.2659 12.7987 23.0775 12.5533 22.8196 12.3999C22.5843 12.3359 22.347 12.2558 22.1577 12.0945C21.7533 11.7648 21.5217 11.2757 21.1265 10.9358C21.0512 10.8617 20.9624 10.8042 20.878 10.7413C20.7978 10.7608 20.834 10.9339 20.7359 10.8457C20.6825 10.8077 20.5489 10.804 20.5369 10.8571C20.6577 11.0163 20.7787 11.198 20.7954 11.4017C20.713 11.4101 20.5665 11.3842 20.5257 11.4149C20.6351 11.5789 20.7753 11.7244 20.9347 11.8402C20.8583 11.8525 20.7076 11.8458 20.6783 11.8766C20.8365 12.0055 21.0062 12.1373 21.2133 12.1704C21.2557 12.2263 21.1513 12.3342 21.2391 12.3819C21.29 12.4027 21.458 12.4375 21.3423 12.4954C21.2629 12.5489 21.2923 12.6736 21.3939 12.6708C21.4581 12.7036 21.6022 12.7116 21.6135 12.7684C21.5566 12.8263 21.3796 12.895 21.5302 12.9492C21.671 13.0273 21.8316 13.078 21.9924 13.0836C21.9117 13.1514 21.8123 13.19 21.7292 13.2538C22.1002 13.4713 22.5115 13.6144 22.9179 13.7522C23.0797 13.8062 23.2434 13.8567 23.4111 13.8884C22.9237 13.8603 22.4527 13.716 22.0088 13.5185C21.7787 13.4176 21.5471 13.3201 21.3113 13.2332C21.4147 13.1794 21.5343 13.1662 21.6415 13.1197C21.4189 13.0751 21.1758 13.0605 20.9802 12.9382C21.0101 12.8846 21.1238 12.8821 21.1867 12.8549C21.3049 12.8265 21.3782 12.7922 21.2116 12.7819C21.0434 12.7363 20.8506 12.7568 20.7025 12.6554C20.712 12.5946 20.8671 12.6157 20.9302 12.5895C21.0097 12.5758 21.0981 12.5644 21.1617 12.5109C20.9018 12.4031 20.5619 12.4795 20.3583 12.25C20.3114 12.1626 20.5041 12.233 20.559 12.2184C20.6984 12.2184 20.8483 12.2627 20.9811 12.2065C20.6024 12.0403 20.1968 11.8846 19.908 11.5771C19.8759 11.5277 19.7799 11.3926 19.8574 11.3759C20.0822 11.4056 20.2449 11.651 20.4853 11.6128C20.5173 11.5697 20.3456 11.4992 20.3028 11.4376C19.9522 11.1368 19.612 10.8103 19.3663 10.4163C19.3494 10.2847 19.5562 10.265 19.6107 10.3666C19.8788 10.6248 20.121 10.9262 20.4549 11.1024C20.5734 11.1599 20.3868 11.0344 20.362 10.9889C20.0535 10.6307 19.7597 10.2523 19.5441 9.8303C19.5055 9.75425 19.4415 9.61658 19.557 9.5761C19.6725 9.51826 19.787 9.59705 19.8456 9.69623C20.0724 9.98233 20.2394 10.3224 20.5219 10.5607C20.2812 10.0936 20.0241 9.60177 20.0179 9.06417C20.0236 8.95995 20.0303 8.80233 20.1716 8.80661C20.2903 8.78862 20.2715 8.94053 20.3104 9.01297C20.4273 9.40791 20.4783 9.83539 20.7128 10.1841C20.661 9.89111 20.5848 9.58939 20.6355 9.29155C20.6471 9.19376 20.7572 9.16415 20.8291 9.22328C20.8872 9.36548 20.8993 9.54106 20.9522 9.6931C21.2535 10.7235 21.9298 11.6297 22.8111 12.2379C23.537 12.7357 24.3984 13.0329 25.2776 13.0847C25.357 13.0916 25.4367 13.094 25.5162 13.0989" fill="#FEC50C"/>
<path d="M24.4001 14.4651C24.4262 14.4651 24.4474 14.4439 24.4474 14.4178C24.4474 14.3916 24.4262 14.3704 24.4001 14.3704C24.3739 14.3704 24.3528 14.3916 24.3528 14.4178C24.3528 14.4439 24.3739 14.4651 24.4001 14.4651Z" fill="#FEC50C"/>
<path d="M24.3959 14.4294C24.4066 14.4294 24.4152 14.4208 24.4152 14.4101C24.4152 14.3995 24.4066 14.3908 24.3959 14.3908C24.3853 14.3908 24.3766 14.3995 24.3766 14.4101C24.3766 14.4208 24.3853 14.4294 24.3959 14.4294Z" fill="#FEC50C" stroke="#00AFCA" stroke-width="0.381274"/>
<path d="M6.39998 1.45844C6.39998 1.45844 6.20777 1.29692 6.14251 1.37794C6.03752 1.50824 6.4653 2.15729 6.4653 2.38585C6.4653 2.76103 6.21496 2.86307 5.90585 2.91663C5.69843 2.95259 5.36067 2.90159 5.36067 2.90159C5.42426 2.81614 5.46563 2.79096 5.57279 2.78413C5.45349 2.72219 5.33201 2.58775 5.33201 2.37845C5.33201 2.05569 5.46488 1.92267 5.46488 1.55879C5.46488 1.35693 5.29936 1.09998 5.29936 1.09998C5.59192 1.12926 5.73692 1.40015 5.65442 1.61665C5.70099 1.62336 5.74327 1.61288 5.77959 1.57846C5.801 1.63847 5.7672 1.70813 5.72192 1.76814C5.75839 1.78762 5.78517 1.77594 5.84324 1.76395C5.83774 1.82578 5.80069 1.89146 5.71005 1.95329C5.97307 1.885 6.13491 2.06832 6.13491 2.26023C6.13491 2.40519 6.03333 2.50909 5.93403 2.50909C5.90194 2.50909 5.85481 2.49587 5.82821 2.47602C5.80947 2.51592 5.81913 2.56932 5.83844 2.60922C5.76566 2.58998 5.71947 2.54676 5.75235 2.45679C5.69646 2.45166 5.65199 2.43277 5.62174 2.39678C5.65239 2.35753 5.69888 2.33493 5.75235 2.33677C5.71165 2.25278 5.75701 2.20576 5.8231 2.16765C5.8231 2.16765 5.78107 2.33677 5.88841 2.33677C5.93667 2.33677 5.98065 2.32106 5.98065 2.24993C5.98065 2.18799 5.9265 2.10219 5.80133 2.10764C5.67616 2.1131 5.57469 2.19395 5.57469 2.39376C5.57469 2.57809 5.72336 2.66976 5.91927 2.67568C6.09595 2.68114 6.22929 2.58543 6.22929 2.40318C6.22929 2.16062 5.87913 1.60773 5.87913 1.39157C5.87913 1.22939 6.02497 1.13887 6.16767 1.13887C6.3527 1.13887 6.50883 1.32209 6.50883 1.32209L6.40012 1.45838L6.39998 1.45844Z" fill="#FEC50C"/>
<path d="M6.44042 5.8428C6.44042 6.2482 6.07646 6.45656 5.79046 6.45656C5.40514 6.45656 5.19998 6.22618 5.19998 5.9246C5.19998 5.75365 5.2313 5.64638 5.31013 5.48276C5.31013 5.48276 5.94573 4.16094 6.19319 3.6497C6.22405 3.58593 6.234 3.51335 6.234 3.40694C6.234 3.2426 6.0746 3.10828 5.90746 3.10416C5.7551 3.10035 5.5891 3.2462 5.5891 3.4124C5.5891 3.61426 5.69382 3.70426 5.80134 3.70426C5.93366 3.70426 5.98638 3.64986 5.98638 3.55696C5.98638 3.49223 5.95511 3.46422 5.91019 3.46422C5.7967 3.46422 5.82856 3.61697 5.82856 3.61697C5.77219 3.60463 5.72589 3.54704 5.75237 3.47513C5.71113 3.46595 5.67251 3.4443 5.64216 3.40966C5.67258 3.38017 5.70748 3.3574 5.75237 3.34965C5.72579 3.26191 5.7613 3.21904 5.83808 3.20099C5.82259 3.23474 5.82205 3.26579 5.82719 3.2951C5.94807 3.26073 6.13331 3.31543 6.13331 3.52422C6.13331 3.73152 5.98944 3.90608 5.7197 3.86246C5.78387 3.89314 5.81651 3.95592 5.8231 4.02612C5.77412 4.00703 5.7197 4.0043 5.7197 4.0043C5.75124 4.05992 5.79504 4.10785 5.79316 4.21706C5.74315 4.19433 5.69671 4.15222 5.63262 4.17887C5.73321 4.37681 5.60963 4.64909 5.2952 4.71351C5.41027 4.57863 5.46663 4.43297 5.46663 4.28797C5.46663 3.81805 5.33602 3.73907 5.33602 3.41237C5.33602 3.27569 5.40628 3.12807 5.54554 3.02775V3.03321C5.4535 3.00856 5.39453 2.96324 5.36064 2.90166C5.57094 2.84203 5.87662 2.84312 6.04076 2.9077C6.22944 2.92955 6.36114 3.07432 6.39994 3.14778C6.43875 3.2212 6.51413 3.48684 6.39994 3.72602C6.27497 3.98778 5.68572 5.2372 5.502 5.62998C5.46304 5.71329 5.43942 5.80163 5.43942 5.8973C5.43942 6.1379 5.65982 6.2219 5.785 6.2219C5.93465 6.2219 6.08704 6.10788 6.08704 5.9655C6.08704 5.87528 6.03805 5.82093 5.96731 5.82093C5.79813 5.82093 5.80841 5.96484 5.84214 6.05551C5.73685 6.00818 5.67565 5.92368 5.69248 5.83457C5.63287 5.82641 5.57613 5.79813 5.52377 5.7391C5.56497 5.68708 5.61522 5.64776 5.69248 5.64636C5.65873 5.50812 5.75129 5.44965 5.84214 5.41724C5.8134 5.5187 5.79453 5.63546 5.96731 5.63546C6.09328 5.63546 6.19247 5.65728 6.25031 5.73911C6.25371 5.63001 6.26391 5.19901 6.26391 5.19901C6.27117 5.03706 6.04713 5.04169 5.90473 5.0899C5.95848 4.90335 6.06869 4.80248 6.32377 4.82804C6.26187 4.80213 6.19588 4.74388 6.19588 4.63165C6.19592 4.47979 6.31912 4.31155 6.4 4.26181L6.44044 5.84283L6.44042 5.8428Z" fill="#FEC50C"/>
</g>
<defs>
<filter id="filter0_d" x="0" y="0" width="48" height="28" filterUnits="userSpaceOnUse" color-interpolation-filters="sRGB">
<feFlood flood-opacity="0" result="BackgroundImageFix"/>
<feColorMatrix in="SourceAlpha" type="matrix" values="0 0 0 0 0 0 0 0 0 0 0 0 0 0 0 0 0 0 127 0"/>
<feOffset dy="4"/>
<feGaussianBlur stdDeviation="2"/>
<feColorMatrix type="matrix" values="0 0 0 0 0 0 0 0 0 0 0 0 0 0 0 0 0 0 0.25 0"/>
<feBlend mode="normal" in2="BackgroundImageFix" result="effect1_dropShadow"/>
<feBlend mode="normal" in="SourceGraphic" in2="effect1_dropShadow" result="shape"/>
</filter>
</defs>
</svg>
