<svg width="48" height="28" viewBox="0 0 48 28" fill="none" xmlns="http://www.w3.org/2000/svg">
<g filter="url(#filter0_d)">
<path d="M44 0H4V20H44V0Z" fill="#C8313E"/>
<path d="M44 13.3333H4V20H44V13.3333Z" fill="#4AA657"/>
<path d="M8.44444 0H4V20H8.44444V0Z" fill="white"/>
<path fill-rule="evenodd" clip-rule="evenodd" d="M4.77295 0H5.35265V0.32787H5.54589V0.65574H5.73913V0.983609H5.93236V1.31148H6.1256V1.63935H5.93236V1.96722H5.73913V2.29509H5.54589V2.62296H5.35265V2.95083H5.15942V3.2787H4.96618V2.95083H4.77295V2.62296H4.57971V2.29509H4.38647V1.96722H4.19324V1.63935H4V1.31148H4.19324V0.983609H4.38647V0.65574H4.57971V0.32787H4.77295V0ZM4.96618 0.65574H5.15942V0.983609H5.35265V1.31148H5.54589V1.63935H5.35265V1.96722H5.15942V2.29509H4.96618V1.96722H4.77295V1.63935H4.57971V1.31148H4.77295V0.983609H4.96618V0.65574ZM4.96618 1.31148H5.15942V1.63935H4.96618V1.31148ZM4 0.32787H4.19324V0.65574H4V0.32787ZM4 2.29509H4.19324V2.62296H4V2.29509ZM6.1256 0H6.24154V0.65574H6.1256V0ZM6.1256 2.29509H6.24154V2.95083H6.1256V2.29509ZM4.38647 2.95083H4.57971V3.2787H4.77295V3.60657H4.96618V3.93444H4.77295V4.26231H4.57971V4.59018H4.38647V4.26231H4.19324V3.93444H4V3.60657H4.19324V3.2787H4.38647V2.95083ZM4.38647 3.60657H4.57971V3.93444H4.38647V3.60657ZM5.54589 2.95083H5.73913V3.2787H5.93236V3.60657H6.1256V3.93444H5.93236V4.26231H5.73913V4.59018H5.54589V4.26231H5.35265V3.93444H5.15942V3.60657H5.35265V3.2787H5.54589V2.95083ZM5.54589 3.60657H5.73913V3.93444H5.54589V3.60657ZM4 4.91805H4.19324V5.24592H4V4.91805ZM6.1256 4.59018H6.24154V5.24592H6.1256V4.59018Z" fill="#C8313E"/>
<path fill-rule="evenodd" clip-rule="evenodd" d="M4 5.90164H4.19324V5.57377H4.38647V5.2459H4.57971V4.91803H4.77295V4.59017H4.96618V4.2623H5.15942V4.59017H5.35265V4.91803H5.54589V5.2459H5.73913V5.57377H5.93236V5.90164H6.1256V6.22951H6.24154V7.54098H6.1256V7.86885H5.93236V8.19671H5.73913V8.52458H5.54589V8.85245H5.35265V9.18032H5.15942V10.0328H4.77295V9.83605H4.57971V9.50819H4.38647V9.18032H4.19324V8.85245H4V7.86885H4.19324V8.19671H4.38647V8.52458H4.57971V8.85245H4.77295V8.52458H4.96618V8.19671H5.15942V7.86885H5.35265V7.54098H5.54589V7.21311H5.73913V6.88524H5.54589V6.55737H5.35265V6.22951H4.77295V6.55737H5.15942V6.88524H4.96618V7.21311H4.77295V7.54098H4.57971V7.21311H4.38647V6.88524H4.19324V6.55737H4V5.90164ZM4 7.21311H4.19324V7.54098H4V7.21311ZM6.1256 8.19671H6.24154V8.52458H6.1256V8.19671ZM5.73913 8.85245H5.93236V9.18032H6.1256V9.50819H6.24154V10.0328H6.1256V9.83605H5.93236V9.50819H5.73913V8.85245ZM5.35265 9.83605H5.54589V10.0328H5.35265V9.83605Z" fill="#C8313E"/>
</g>
<defs>
<filter id="filter0_d" x="0" y="0" width="48" height="28" filterUnits="userSpaceOnUse" color-interpolation-filters="sRGB">
<feFlood flood-opacity="0" result="BackgroundImageFix"/>
<feColorMatrix in="SourceAlpha" type="matrix" values="0 0 0 0 0 0 0 0 0 0 0 0 0 0 0 0 0 0 127 0"/>
<feOffset dy="4"/>
<feGaussianBlur stdDeviation="2"/>
<feColorMatrix type="matrix" values="0 0 0 0 0 0 0 0 0 0 0 0 0 0 0 0 0 0 0.25 0"/>
<feBlend mode="normal" in2="BackgroundImageFix" result="effect1_dropShadow"/>
<feBlend mode="normal" in="SourceGraphic" in2="effect1_dropShadow" result="shape"/>
</filter>
</defs>
</svg>
