<svg width="48" height="28" viewBox="0 0 48 28" fill="none" xmlns="http://www.w3.org/2000/svg">
<g filter="url(#filter0_d)">
<path d="M44 0H4V20H44V0Z" fill="#1EB53A"/>
<path d="M44 0H4V10H44V0Z" fill="#0099B5"/>
<path d="M44 6.39999H4V13.6H44V6.39999Z" fill="#CE1126"/>
<path d="M44 6.79999H4V13.2H44V6.79999Z" fill="white"/>
<path d="M9.60001 5.59999C10.9255 5.59999 12 4.52547 12 3.19999C12 1.8745 10.9255 0.799988 9.60001 0.799988C8.27453 0.799988 7.20001 1.8745 7.20001 3.19999C7.20001 4.52547 8.27453 5.59999 9.60001 5.59999Z" fill="white"/>
<path d="M10.4 5.59999C11.7255 5.59999 12.8 4.52547 12.8 3.19999C12.8 1.8745 11.7255 0.799988 10.4 0.799988C9.07452 0.799988 8 1.8745 8 3.19999C8 4.52547 9.07452 5.59999 10.4 5.59999Z" fill="#0099B5"/>
<path d="M14.88 4.64001L14.7317 5.09652L14.9599 5.17068" fill="white"/>
</g>
<defs>
<filter id="filter0_d" x="0" y="0" width="48" height="28" filterUnits="userSpaceOnUse" color-interpolation-filters="sRGB">
<feFlood flood-opacity="0" result="BackgroundImageFix"/>
<feColorMatrix in="SourceAlpha" type="matrix" values="0 0 0 0 0 0 0 0 0 0 0 0 0 0 0 0 0 0 127 0"/>
<feOffset dy="4"/>
<feGaussianBlur stdDeviation="2"/>
<feColorMatrix type="matrix" values="0 0 0 0 0 0 0 0 0 0 0 0 0 0 0 0 0 0 0.25 0"/>
<feBlend mode="normal" in2="BackgroundImageFix" result="effect1_dropShadow"/>
<feBlend mode="normal" in="SourceGraphic" in2="effect1_dropShadow" result="shape"/>
</filter>
</defs>
</svg>
