<svg width="67" height="67" viewBox="0 0 67 67" fill="none" xmlns="http://www.w3.org/2000/svg">
<g clip-path="url(#clip0)">
<path d="M35.2577 24.6176C28.6891 24.6964 24.2671 32.0982 27.2571 37.6634C28.0191 39.0822 29.1726 40.1044 30.5099 41.0792C29.1205 41.3114 27.7053 41.3468 26.306 41.1843C25.7805 41.1317 25.4915 40.685 25.2314 40.2909C22.6328 36.565 22.6591 32.6263 24.6008 28.7691C26.997 24.0158 31.0617 21.5459 36.4138 21.5223C45.9882 21.4697 55.5627 21.496 65.1371 21.496C65.7677 21.496 66.3694 21.4697 66.9763 21.4697V18.0828H67V24.6176C56.4271 24.5913 45.8306 24.4888 35.2577 24.6176Z" fill="white"/>
<path d="M52.9405 37.4794C53.2804 34.9727 53.2005 32.4268 52.704 29.9462C52.5727 29.3445 52.0472 28.5563 53.2006 28.2935C54.5669 27.9782 55.4313 28.3461 55.6941 29.4234C56.0559 30.8643 56.2238 32.3471 56.1933 33.8324C55.9568 44.4346 50.9988 52.2253 42.0524 57.6118C37.8484 60.1316 33.2399 61.2063 28.3344 61.18C19.6244 61.1537 10.9144 61.18 2.20706 61.18C1.10616 61.18 0.596437 61.3166 0.575417 61.7791L0.0499268 56.9365C0.0875566 57.2115 0.153596 57.4818 0.246986 57.7431C0.404633 58.1898 0.877574 58.111 1.26906 58.111C10.9906 58.111 20.7595 58.2687 30.5178 58.0322C41.6083 57.7431 51.4455 48.5047 52.9405 37.4794Z" fill="white"/>
<path d="M49.1334 30.7082C51.4665 41.9147 43.2584 53.1502 31.8474 54.4088C30.2472 54.5664 28.6208 54.5927 27.0207 54.5927C18.626 54.5927 10.205 54.5664 1.81033 54.5927C1.25857 54.5927 0.446687 54.2774 0.210216 55.0394C0.129259 55.2795 0.0711968 55.5267 0.0368042 55.7777V55.0945L0.0578238 50.1863C0.107745 51.0875 0.454569 51.5736 1.63429 51.5736C11.2613 51.5211 20.8883 51.7313 30.5152 51.4948C41.5085 51.232 49.5354 39.5788 45.5206 29.5521C45.1528 28.6088 45.3892 28.2935 46.3614 28.2672C48.3215 28.2147 48.663 28.4774 49.1334 30.7082Z" fill="white"/>
<path d="M26.8394 17.6361C19.2198 21.9427 15.1131 31.1024 17.2124 39.211C17.6827 41.0765 18.0506 41.313 19.9134 41.2868C20.9092 41.2868 21.1457 40.9715 20.7779 40.0255C20.0775 38.3292 19.6954 36.5184 19.6507 34.6837C19.5719 25.7868 27.1258 18.0697 36.0197 18.0171C44.2042 17.9646 52.3887 17.9909 60.5732 18.0171C62.6988 18.0171 64.8481 18.0697 66.9737 18.096V21.4697C66.3694 21.4697 65.7677 21.496 65.1345 21.496C55.56 21.496 45.9856 21.4697 36.4112 21.5223C31.0591 21.5486 26.9944 24.0158 24.6061 28.7665C22.6644 32.6237 22.6381 36.5624 25.2366 40.2883C25.4994 40.6824 25.7858 41.1291 26.3113 41.1817C27.7106 41.3442 29.1258 41.3088 30.5152 41.0765C29.1778 40.1044 28.0244 39.0822 27.2624 37.6607C24.2724 32.0956 28.7075 24.6938 35.263 24.6149C45.8358 24.4862 56.4324 24.5886 67.0052 24.6149V60.1841C66.8738 60.6308 66.7425 61.1011 66.5848 61.5478C65.5627 64.8034 62.7829 66.9816 59.3725 66.9816C42.1364 67.0079 24.8933 67.0079 7.64323 66.9816C4.78194 66.9816 2.55386 65.6179 1.11139 63.1244C0.754058 62.5121 0.567509 62.0733 0.585901 61.7843C0.606921 61.3219 1.11139 61.1852 2.21755 61.1852C10.9249 61.1852 19.6349 61.1589 28.3449 61.1852C33.2504 61.2115 37.8668 60.1342 42.0628 57.617C50.9962 52.2358 55.9673 44.4398 56.2038 33.8376C56.2334 32.3522 56.0647 30.8694 55.7019 29.4286C55.4392 28.3513 54.5747 27.9834 53.2085 28.2988C52.055 28.5615 52.5805 29.3498 52.7119 29.9515C53.2084 32.432 53.2883 34.9779 52.9484 37.4847C51.4533 48.5204 41.6162 57.7484 30.5178 58.0374C20.7595 58.2739 11.0011 58.1162 1.26904 58.1162C0.877548 58.1162 0.404607 58.1951 0.24696 57.7484C0.15357 57.487 0.0875309 57.2167 0.0499011 56.9417C0.0486332 56.9269 0.0486332 56.9119 0.0499011 56.8971V55.8171V55.8014C0.0842937 55.5503 0.142356 55.3031 0.223313 55.063C0.459783 54.301 1.27429 54.6163 1.82343 54.6163C10.2313 54.5901 18.6391 54.6163 27.0338 54.6163C28.6339 54.6163 30.2603 54.5901 31.8604 54.4324C43.2715 53.1738 51.4796 41.9384 49.1464 30.7319C48.6735 28.5011 48.3319 28.2383 46.3666 28.2909C45.3944 28.3171 45.158 28.6325 45.5258 29.5757C49.53 39.5788 41.5137 51.2373 30.5099 51.5001C20.883 51.7365 11.256 51.5263 1.629 51.5789C0.454528 51.5789 0.107705 51.0928 0.0525285 50.1915V49.6424C0.107705 48.1026 0.249587 47.9056 1.629 47.8793C4.40884 47.853 7.19131 47.8793 9.99743 47.8793C17.0022 47.8793 24.0306 47.9844 31.0354 47.8267C39.2199 47.6428 45.0686 38.7459 42.1574 31.1864C41.0565 28.2961 38.7207 27.3528 35.7044 28.5589C38.1716 30.0014 39.7191 32.022 39.9083 34.936C40.1947 40.2646 36.1301 44.8576 30.7254 44.9207C21.0196 45.0126 11.298 44.9312 1.57645 44.9601C0.554372 44.9601 0.0814305 44.5922 0.0814305 43.4913C0.107705 31.5228 0.0814305 19.528 0.107705 7.55685C0.107705 5.19205 1.23488 3.33174 3.01892 1.81038C4.175 0.83819 5.56492 0.496608 6.90229 0H59.9426C63.7734 0.917016 66.1854 3.20036 66.9737 7.13906V8.19009C66.2643 8.50539 65.5312 8.42657 64.7955 8.42657H37.7512C36.6214 8.39109 35.4906 8.43499 34.367 8.55794C21.4084 10.2475 11.6238 20.1297 10.1288 33.0704C9.83509 35.4514 9.96406 37.8655 10.5098 40.2016C10.7463 41.2 11.7421 41.5942 13.0532 41.2526C14.1041 40.9898 13.6312 40.2541 13.5261 39.6498C13.1241 37.6027 12.9828 35.5129 13.1057 33.4304C14.1173 21.207 24.7138 11.3379 36.9629 11.2985C46.251 11.2722 55.5101 11.2985 64.7955 11.2985C65.5312 11.2985 66.2905 11.2197 66.9737 11.5612V14.9324C56.9526 14.9324 46.9315 14.9587 36.9367 14.9587C33.3935 14.9437 29.9096 15.8676 26.8394 17.6361Z" fill="#2196F3"/>
<path d="M17.2124 39.211C15.1104 31.1024 19.2303 21.9427 26.8394 17.6362C29.9096 15.8676 33.3935 14.9438 36.9367 14.9587C46.921 14.9587 56.9526 14.9324 66.9737 14.9324V11.5612V18.096H66.9579C64.8323 18.0697 62.6831 18.0172 60.5574 18.0172C52.3729 17.9909 44.1884 17.9646 36.0039 18.0172C27.11 18.0697 19.5561 25.7868 19.6349 34.6837C19.678 36.5229 20.0602 38.3382 20.7621 40.0387C21.1299 40.9846 20.8934 41.2999 19.8976 41.2999C18.0505 41.313 17.6827 41.0766 17.2124 39.211Z" fill="white"/>
<path d="M10.1288 33.0704C11.6238 20.1297 21.4085 10.2474 34.367 8.5553C35.4906 8.43234 36.6215 8.38844 37.7512 8.42392H64.7956C65.5312 8.42392 66.2643 8.50275 66.9737 8.18744V11.5481C66.2906 11.2065 65.5312 11.2853 64.7956 11.2853C55.5101 11.2853 46.251 11.259 36.963 11.2853C24.7138 11.3379 14.1041 21.207 13.0926 33.4382C12.9697 35.5208 13.111 37.6106 13.513 39.6576C13.6181 40.262 14.091 40.9977 13.04 41.2605C11.7263 41.602 10.7331 41.2079 10.4967 40.2094C9.95439 37.87 9.82986 35.4531 10.1288 33.0704Z" fill="white"/>
<path d="M0.0814444 43.4913C0.0814444 44.5922 0.554386 44.9601 1.57646 44.9601C11.298 44.9338 21.0196 45.0126 30.7201 44.9075C36.1248 44.855 40.179 40.262 39.9162 34.9228C39.7323 32.0089 38.1847 29.9883 35.7123 28.5457C38.7286 27.3371 41.0644 28.283 42.1653 31.1733C45.0765 38.7328 39.2278 47.6297 31.0433 47.8136C24.0385 47.9712 17.0101 47.8661 10.0053 47.8661C7.19921 47.8661 4.41674 47.8399 1.6369 47.8661C0.265366 47.8924 0.123484 48.0895 0.0604248 49.6292L0.0814444 43.4913Z" fill="white"/>
<path d="M0.0551758 49.7895C0.0551758 49.7396 0.0551758 49.6923 0.0551758 49.645V50.1863C0.0564823 50.1679 0.0564823 50.1495 0.0551758 50.1311V49.7895Z" fill="#2196F3"/>
<path d="M0.0551932 49.7895V50.0759C0.0525658 49.984 0.0525658 49.8894 0.0551932 49.7895Z" fill="#2196F3"/>
<path d="M0.0393974 55.7803V55.7961V56.876C-0.00922621 56.5124 -0.00922621 56.1439 0.0393974 55.7803Z" fill="#2196F3"/>
</g>
<defs>
<clipPath id="clip0">
<rect width="67" height="67" fill="white"/>
</clipPath>
</defs>
</svg>
