<svg version="1.1" id="Слой_1" xmlns="http://www.w3.org/2000/svg" x="0px" y="0px" viewBox="0 0 1024 1024">
	<path fill="#FFFFFF" d="M901.2,1024H122.8C55,1024,0,969,0,901.2V122.8C0,55,55,0,122.8,0h778.4C969,0,1024,55,1024,122.8v778.4 C1024,969,969,1024,901.2,1024z"/>
		<path d="M0,787c0,0,0-52,0-52c4.1-0.8,8.3-1.1,12.4-1c148.8,0,297.7,0,446.5,0c12.2,0,24.4-0.5,36.3-2.8
			c44-8.5,80.8-29.9,111-62.9c58.1-61.1,70.3-164.4,15.4-231.3c-3.6-4.5-7.8-6.1-13.4-6.1c-23,0.3-46-0.2-69,0.1
			c-1.3,0.2-2.9,0.2-3.1,1.9c-0.2,1.4,1,2,2,2.5c2.5,1.3,5.1,2.6,7.6,3.8c45.4,22.8,66.9,69.3,62.6,115.8
			c-5.3,72.2-71.5,132-144,130.8c-154.8-0.1-309.6-0.1-464.4,0V98c1.8-0.9,2.5-2.5,2.9-4.4c3.1-13.3,8.5-26,16.2-37.3
			C42.3,22.3,74.2,3.6,115.6,2c2.3-0.1,4.7,0.1,6.4-2c0,0,782,0,782,0c1.5,2,3.7,1.9,5.9,2c55.3,2.8,102,44.6,111.3,99.3
			c0.5,2.4,0.5,5,1.8,6.7v16c-2.5,1.5-6.4,2.2-10.2,2c-37.5-0.1-75-0.2-112.5,0c-118.8,0.5-237.6-1.4-356.4,1
			c-30.2,0.6-59.6,6.5-88.4,15.1c-68.7,20.4-131.5,58.6-181.9,109.2C189.9,334.7,141.8,454.1,152,572.5c1.4,17.6,4.2,35.1,8.3,52.2
			c1.1,4.8,3.9,6.4,8.6,6.4c12-0.2,24,0,36-0.1c6.6,0,8.1-2.1,6.1-8.3c-7.8-25.3-11.1-51.4-11.8-77.8
			c-3.8-129.7,71.6-254.7,182.5-319.8c34.4-20.6,71.9-35.4,111-43.8c23.5-5,47.4-7.4,71.4-7.3c149.2,0.1,298.3,0.1,447.5,0
			c4.2-0.1,8.3,0.3,12.5,1v50c-4,2-8.4,2-12.7,2c-158,0.6-316-1.3-473.9,0.9c-12.8,0.2-25.2,2.6-37.6,5.1
			c-20.6,4.2-40.6,10.6-59.8,19.1c-141.4,61.9-224.7,223.8-171.4,372.5c1.6,4.9,4.7,6.7,9.7,6.6c13.2-0.2,26.3,0,39.5-0.1
			c7.1,0,8-1.5,4.7-8.1c-45.3-89.4-17.3-202.2,52.2-271c46.9-47.6,111.8-77,178.9-76.9c156.8,0.8,313.8-2,469.4,0.9v50
			c-4.2,2.1-9.7,2-15.2,2h-458c-16.1,0-32,1.6-47.4,5.9c-85.7,22.2-152.2,105-148.5,194.6c1.1,36.4,13.3,68.3,35.2,96.9
			c2.7,3.9,7.3,6,12,5.8c24-0.3,48,0.1,72-0.2c1-0.1,2.2-0.1,2.5-1.2c0.7-2.3-3.4-3.3-4.9-4.1c-17-7.1-31.9-18.6-43.1-33.2
			c-69.1-88.9,10.6-217,117.1-216.5c159.8,1,478.4,1,478.4,1s0,542,0,542c-2.3,1.6-2.5,4.2-2.9,6.7c-6.8,45.6-42.3,83.4-86.7,95.3
			c-1.8,0.5-3.4,1.2-4.4,3c0,0-836.2,0-836.2,0c-1.3-2-3.3-2.6-5.4-3.2c-35.4-9.5-66.7-36.9-79.5-71.3c-4.3-13-3.4-13.5,10.7-13.5
			c143.2,0,286.4,0,429.6,0c11.8,0,23.7-0.1,35.4-1.6c17.5-2.2,34.9-5.2,52-9.2c139.7-33.2,258-143,303.3-279.1
			c22.4-66.8,26.5-139.6,10.8-208.3c-0.8-4-3.2-6.5-7.6-6.5c-12.8,0-25.6-0.1-38.5,0c-4.6,0-6.1,2-5,6.4c2.3,9.4,4.7,18.7,6.5,28.2
			c33.3,165.8-75.2,337.7-229.6,397.8c-42.8,17.2-87.6,25.1-133.6,25.2c-143.5,0.3-287,0.1-430.6,0.1c-3.8,0-7.6-0.3-11.4-1
			c0,0,0-52,0-52c153.2-2.8,306.7-0.1,460-1c10.8,0,21.6-0.7,32.3-2.2c20.9-3.2,41.3-8.5,61.2-15.8
			c149.1-53,244.7-226.7,188.2-378.8c-1.7-4.8-4.8-7.3-10.1-7.1c-13.3,0.2-26.7-0.3-40,0.1c-9.7,0-4.2,7.7-1.8,12.8
			c61.4,129.1-24.6,288.2-156,330.2c-25.7,8.9-52.6,13.5-79.8,13.6C302.6,787.1,151.2,789.6,0,787z"/>
</svg>
